<svg width="140" height="31" viewBox="0 0 140 31" fill="none" xmlns="http://www.w3.org/2000/svg">
<g clip-path="url(#clip0_828_493)">
<path d="M35.1631 30.4464V6.2775H52.9436V11.6992H41.5322V16.9249H51.4509V22.1179H41.5322V30.4464H35.1631ZM60.0215 11.4052C58.9822 11.4052 58.1197 11.0786 57.434 10.4254C56.7706 9.75041 56.4389 8.95568 56.4389 8.04118C56.4389 7.08314 56.7706 6.2775 57.434 5.62429C58.1197 4.97107 58.9822 4.64446 60.0215 4.64446C61.0611 4.64446 61.9236 4.97107 62.609 5.62429C63.2946 6.2775 63.6373 7.08314 63.6373 8.04118C63.6373 8.95568 63.2946 9.75041 62.609 10.4254C61.9236 11.0786 61.0611 11.4052 60.0215 11.4052ZM56.8701 30.4464V13.1363H63.1729V30.4464H56.8701ZM75.6256 30.773C74.2987 30.773 73.215 30.6097 72.3747 30.2831C71.5341 29.9347 70.8819 29.4993 70.4175 28.9767C69.9531 28.4323 69.6214 27.8554 69.4223 27.2457C69.2233 26.636 69.1016 26.0699 69.0574 25.5473C69.013 25.003 68.9911 24.5566 68.9911 24.2082V18.0354H66.1382V13.1363H68.9911V8.89036H75.2939V13.1363H78.7107V18.0354H75.2939V23.9796C75.2939 24.5893 75.4598 25.0901 75.7915 25.482C76.1232 25.8521 76.7313 26.0372 77.616 26.0372C77.9696 26.0372 78.2682 26.0155 78.5116 25.9719C78.7548 25.9066 78.8765 25.8739 78.8765 25.8739V30.4464C78.8765 30.4464 78.5448 30.501 77.8814 30.6097C77.2398 30.7185 76.4881 30.773 75.6256 30.773ZM85.2898 30.773C84.1842 30.773 83.2553 30.7185 82.5033 30.6097C81.7513 30.501 81.3754 30.4464 81.3754 30.4464V25.3187C81.3754 25.3187 81.6408 25.3514 82.1716 25.4167C82.7024 25.4602 83.3104 25.482 83.9961 25.482C85.4116 25.482 86.5282 25.1554 87.3465 24.5022C88.1868 23.849 88.6071 22.6623 88.6071 20.9422V6.2775H94.9099V21.1055C94.9099 22.3684 94.744 23.5877 94.4123 24.7635C94.0806 25.9175 93.5389 26.9517 92.7869 27.8662C92.0571 28.7589 91.0728 29.4666 89.8345 29.9892C88.5961 30.5118 87.0812 30.773 85.2898 30.773ZM107.974 30.773C105.961 30.773 104.236 30.3592 102.799 29.5319C101.361 28.7046 100.267 27.6158 99.5147 26.2659C98.7627 24.8941 98.3869 23.4026 98.3869 21.7913C98.3869 20.1801 98.7627 18.6995 99.5147 17.3495C100.267 15.9777 101.361 14.8781 102.799 14.0508C104.236 13.2234 105.961 12.8096 107.974 12.8096C110.008 12.8096 111.733 13.2234 113.149 14.0508C114.586 14.8781 115.681 15.9777 116.433 17.3495C117.185 18.6995 117.561 20.1801 117.561 21.7913C117.561 23.4026 117.185 24.8941 116.433 26.2659C115.681 27.6158 114.586 28.7046 113.149 29.5319C111.733 30.3592 110.008 30.773 107.974 30.773ZM107.974 25.8086C108.991 25.8086 109.787 25.4276 110.362 24.6655C110.959 23.8816 111.258 22.9236 111.258 21.7913C111.258 20.6591 110.959 19.7119 110.362 18.9499C109.787 18.166 108.991 17.7741 107.974 17.7741C106.956 17.7741 106.149 18.166 105.552 18.9499C104.977 19.7119 104.69 20.6591 104.69 21.7913C104.69 22.9236 104.977 23.8816 105.552 24.6655C106.149 25.4276 106.956 25.8086 107.974 25.8086ZM132.163 30.773C131.301 30.773 130.56 30.6643 129.941 30.4464C129.322 30.207 128.813 29.9457 128.415 29.6626C128.039 29.3794 127.751 29.1292 127.552 28.9114C127.376 28.672 127.287 28.5521 127.287 28.5521H127.022V30.4464H120.719V5.62429H127.022V15.0306H127.287C127.287 15.0306 127.376 14.9217 127.552 14.704C127.751 14.4645 128.039 14.2032 128.415 13.9201C128.813 13.637 129.322 13.3867 129.941 13.1689C130.56 12.9294 131.301 12.8096 132.163 12.8096C133.446 12.8096 134.552 13.0709 135.481 13.5935C136.432 14.0943 137.217 14.7802 137.836 15.6511C138.477 16.5003 138.953 17.4583 139.262 18.5253C139.572 19.5922 139.727 20.6809 139.727 21.7913C139.727 22.9018 139.572 23.9905 139.262 25.0574C138.953 26.1243 138.477 27.0933 137.836 27.9642C137.217 28.8134 136.432 29.4993 135.481 30.0218C134.552 30.5225 133.446 30.773 132.163 30.773ZM130.074 25.8413C130.826 25.8413 131.434 25.6453 131.898 25.2534C132.385 24.8397 132.75 24.328 132.993 23.7183C133.236 23.0869 133.358 22.4446 133.358 21.7913C133.358 21.1381 133.236 20.5067 132.993 19.897C132.75 19.2656 132.385 18.7539 131.898 18.362C131.434 17.9483 130.826 17.7414 130.074 17.7414C129.344 17.7414 128.736 17.9483 128.249 18.362C127.762 18.7539 127.397 19.2656 127.154 19.897C126.911 20.5067 126.789 21.1381 126.789 21.7913C126.789 22.4446 126.911 23.0869 127.154 23.7183C127.397 24.328 127.762 24.8397 128.249 25.2534C128.736 25.6453 129.344 25.8413 130.074 25.8413Z" fill="black"/>
<path d="M0 0H19.6787V5.53571H0V0Z" fill="#FABE00"/>
<path d="M14.0566 19.375H19.6791V30.4464H14.0566V19.375Z" fill="#FABE00"/>
<path d="M19.6787 24.6339H25.3012V30.4464H19.6787V24.6339Z" fill="#FABE00"/>
<path d="M25.3008 0H30.9233V30.4464H25.3008V0Z" fill="#FABE00"/>
<path d="M5.62207 11.0714H11.2446V16.6071H5.62207V11.0714Z" fill="#FABE00"/>
<path d="M14.0566 11.0714H19.6791V16.6071H14.0566V11.0714Z" fill="#FABE00"/>
<path d="M0 5.53571H5.62249V30.4464H0V5.53571Z" fill="#FABE00"/>
</g>
<defs>
<clipPath id="clip0_828_493">
<rect width="140" height="31" fill="white"/>
</clipPath>
</defs>
</svg>
